HIERARCHY
ROOT joint_0
{
	OFFSET 0.000000 0.000000 0.000000
	CHANNELS 6 Xposition Yposition Zposition Zrotation Yrotation Xrotation 
	JOINT joint_1
	{
		OFFSET 6.590088 -1.122192 114.019043
		CHANNELS 3 Zrotation Yrotation Xrotation
		JOINT joint_2
		{
			OFFSET -5.956055 -0.820435 104.151001
			CHANNELS 3 Zrotation Yrotation Xrotation
			JOINT joint_3
			{
				OFFSET -7.343506 -1.103027 103.942993
				CHANNELS 3 Zrotation Yrotation Xrotation
				JOINT joint_4
				{
					OFFSET 3.109131 -2.857056 147.715942
					CHANNELS 3 Zrotation Yrotation Xrotation
					JOINT joint_5
					{
						OFFSET 28.592285 -2.852295 87.703979
						CHANNELS 3 Zrotation Yrotation Xrotation
						End Site
						{
							OFFSET 0.000000 0.000000 0.000000
						}
					}
				}
				JOINT joint_6
				{
					OFFSET -0.332520 -33.687378 82.401978
					CHANNELS 3 Zrotation Yrotation Xrotation
					JOINT joint_7
					{
						OFFSET -7.397461 -168.719177 -22.750977
						CHANNELS 3 Zrotation Yrotation Xrotation
						JOINT joint_8
						{
							OFFSET 17.065918 -24.903137 -272.721069
							CHANNELS 3 Zrotation Yrotation Xrotation
							JOINT joint_9
							{
								OFFSET 33.311279 -37.031616 -278.192993
								CHANNELS 3 Zrotation Yrotation Xrotation
								End Site
								{
									OFFSET 0.000000 0.000000 0.000000
								}
							}
						}
					}
				}
				JOINT joint_10
				{
					OFFSET 3.914307 30.461670 83.552979
					CHANNELS 3 Zrotation Yrotation Xrotation
					JOINT joint_11
					{
						OFFSET 15.543701 166.845459 -30.963013
						CHANNELS 3 Zrotation Yrotation Xrotation
						JOINT joint_12
						{
							OFFSET 35.734863 35.017700 -269.786011
							CHANNELS 3 Zrotation Yrotation Xrotation
							JOINT joint_13
							{
								OFFSET 70.506592 13.977783 -273.320007
								CHANNELS 3 Zrotation Yrotation Xrotation
								End Site
								{
									OFFSET 0.000000 0.000000 0.000000
								}
							}
						}
					}
				}
			}
		}
	}
	JOINT joint_14
	{
		OFFSET -0.314697 -95.093994 -116.004028
		CHANNELS 3 Zrotation Yrotation Xrotation
		JOINT joint_15
		{
			OFFSET -22.490723 2.017883 -455.510986
			CHANNELS 3 Zrotation Yrotation Xrotation
			JOINT joint_16
			{
				OFFSET -46.427490 7.144104 -496.360985
				CHANNELS 3 Zrotation Yrotation Xrotation
				JOINT joint_17
				{
					OFFSET 209.055420 -37.122803 -85.191002
					CHANNELS 3 Zrotation Yrotation Xrotation
					End Site
					{
						OFFSET 0.000000 0.000000 0.000000
					}
				}
			}
		}
	}
	JOINT joint_18
	{
		OFFSET 5.652832 94.642578 -116.244019
		CHANNELS 3 Zrotation Yrotation Xrotation
		JOINT joint_19
		{
			OFFSET -12.379883 -7.332642 -455.843994
			CHANNELS 3 Zrotation Yrotation Xrotation
			JOINT joint_20
			{
				OFFSET -45.227051 -8.172241 -496.457985
				CHANNELS 3 Zrotation Yrotation Xrotation
				JOINT joint_21
				{
					OFFSET 210.522949 -11.530396 -88.809004
					CHANNELS 3 Zrotation Yrotation Xrotation
					End Site
					{
						OFFSET 0.000000 0.000000 0.000000
					}
				}
			}
		}
	}
}
MOTION
Frames: 10
Frame Time: 0.016667
-2521.455322 899.453674 1181.855957 -1.462541 2.332247 1.134514 0.695042 -1.501829 -1.853636 0.829292 0.214778 0.422228 0.770535 -0.298577 -0.320914 -0.027893 1.411964 0.225023 0.000000 0.000000 0.000000 1.492966 1.026478 2.114078 -0.088016 1.233425 2.349757 -0.387869 2.887329 0.062741 0.000000 0.000000 0.000000 1.132171 0.552370 2.489771 -0.246133 0.752021 -2.361979 0.641364 3.273582 1.852250 0.000000 0.000000 0.000000 -0.972203 0.000822 -2.250542 -1.061096 -1.094788 -0.653032 -1.070279 0.808781 -0.291069 0.000000 0.000000 0.000000 4.473354 -0.765300 1.144778 4.519603 -4.238756 1.491120 4.426691 2.827509 2.003001 0.000000 0.000000 0.000000 
-2521.348633 899.548767 1181.833008 -1.471317 2.322528 1.137792 0.696345 -1.500735 -1.835943 0.829493 0.215955 0.418512 0.771173 -0.299383 -0.318341 -0.025924 1.403178 0.218237 0.000000 0.000000 0.000000 1.520168 1.006802 2.122054 -0.088684 1.219615 2.308755 -0.386435 2.892824 0.081233 0.000000 0.000000 0.000000 1.120494 0.538171 2.455105 -0.246561 0.734863 -2.343837 0.639419 3.271332 1.845104 0.000000 0.000000 0.000000 -0.968287 0.008382 -2.263213 -1.057988 -1.081349 -0.649696 -1.067157 0.812174 -0.289196 0.000000 0.000000 0.000000 4.474594 -0.764424 1.124669 4.519143 -4.209167 1.515395 4.428684 2.818263 2.003348 0.000000 0.000000 0.000000 
-2521.249512 899.638428 1181.812012 -1.479858 2.314861 1.141533 0.697970 -1.500718 -1.820102 0.830064 0.215994 0.413963 0.772330 -0.298921 -0.314861 -0.023724 1.394265 0.210723 0.000000 0.000000 0.000000 1.545960 0.987569 2.130938 -0.089442 1.206062 2.268967 -0.385294 2.898028 0.096975 0.000000 0.000000 0.000000 1.108640 0.524372 2.422910 -0.247122 0.718484 -2.327068 0.637371 3.269050 1.837551 0.000000 0.000000 0.000000 -0.964414 0.014539 -2.275260 -1.054838 -1.070159 -0.647547 -1.064077 0.815800 -0.287299 0.000000 0.000000 0.000000 4.475810 -0.765249 1.105426 4.518748 -4.181264 1.537246 4.430501 2.809494 2.003649 0.000000 0.000000 0.000000 
-2521.155029 899.722839 1181.792969 -1.487560 2.310472 1.146367 0.701288 -1.503880 -1.808553 0.832727 0.216484 0.411965 0.775209 -0.299320 -0.313826 -0.022195 1.389584 0.205660 0.000000 0.000000 0.000000 1.564681 0.970062 2.142758 -0.090405 1.193378 2.230732 -0.384608 2.902593 0.108198 0.000000 0.000000 0.000000 1.090664 0.511674 2.396789 -0.247627 0.705258 -2.313810 0.635095 3.264557 1.829501 0.000000 0.000000 0.000000 -0.960594 0.019555 -2.286910 -1.051648 -1.063754 -0.647194 -1.061067 0.819716 -0.285378 0.000000 0.000000 0.000000 4.477004 -0.767834 1.085396 4.518371 -4.157034 1.557922 4.432228 2.801485 2.003950 0.000000 0.000000 0.000000 
-2521.067139 899.800903 1181.775024 -1.494254 2.308023 1.151701 0.704506 -1.508468 -1.799808 0.835510 0.217039 0.411076 0.778088 -0.299697 -0.313353 -0.020728 1.385020 0.200791 0.000000 0.000000 0.000000 1.581949 0.953255 2.155892 -0.091490 1.181198 2.194283 -0.384296 2.906539 0.115591 0.000000 0.000000 0.000000 1.073193 0.499723 2.373778 -0.248160 0.693122 -2.302069 0.632741 3.259336 1.821279 0.000000 0.000000 0.000000 -0.957080 0.023571 -2.297937 -1.048682 -1.059787 -0.647996 -1.058347 0.823123 -0.283666 0.000000 0.000000 0.000000 4.477988 -0.771870 1.066227 4.517880 -4.134754 1.576259 4.433625 2.793488 2.004114 0.000000 0.000000 0.000000 
-2520.988525 899.880432 1181.756958 -1.500009 2.305953 1.156918 0.707691 -1.512126 -1.790336 0.838127 0.216953 0.408682 0.781006 -0.299705 -0.311659 -0.018787 1.379915 0.194412 0.000000 0.000000 0.000000 1.596798 0.936160 2.167867 -0.092592 1.168325 2.158476 -0.384314 2.912162 0.122129 0.000000 0.000000 0.000000 1.055452 0.488216 2.349240 -0.248534 0.681164 -2.288118 0.630233 3.254854 1.812322 0.000000 0.000000 0.000000 -0.953802 0.026559 -2.309786 -1.046082 -1.055380 -0.646881 -1.055808 0.826044 -0.282113 0.000000 0.000000 0.000000 4.478671 -0.776891 1.047818 4.517136 -4.112520 1.593045 4.434617 2.785882 2.004134 0.000000 0.000000 0.000000 
-2520.920898 899.961304 1181.740967 -1.504263 2.304324 1.161881 0.710176 -1.515185 -1.781458 0.840204 0.217988 0.408431 0.783096 -0.300625 -0.311540 -0.016482 1.374437 0.186883 0.000000 0.000000 0.000000 1.610278 0.917825 2.180362 -0.093865 1.154100 2.121958 -0.384988 2.921155 0.127056 0.000000 0.000000 0.000000 1.039296 0.477126 2.321403 -0.248618 0.668531 -2.268339 0.627203 3.251668 1.801101 0.000000 0.000000 0.000000 -0.951014 0.027474 -2.323396 -1.044240 -1.048800 -0.641993 -1.053673 0.828488 -0.280810 0.000000 0.000000 0.000000 4.479076 -0.783573 1.030500 4.516157 -4.089697 1.608106 4.435193 2.779219 2.004035 0.000000 0.000000 0.000000 
-2520.862305 900.042725 1181.725952 -1.507827 2.303237 1.166826 0.712371 -1.517780 -1.772062 0.841870 0.218107 0.406721 0.784964 -0.299953 -0.310612 -0.014227 1.368034 0.179413 0.000000 0.000000 0.000000 1.622595 0.898728 2.192996 -0.095190 1.138975 2.085366 -0.385998 2.931604 0.130832 0.000000 0.000000 0.000000 1.023600 0.466375 2.292016 -0.248435 0.655804 -2.245783 0.624097 3.248939 1.789493 0.000000 0.000000 0.000000 -0.948506 0.027096 -2.337738 -1.042789 -1.041692 -0.635494 -1.051771 0.830521 -0.279675 0.000000 0.000000 0.000000 4.479470 -0.791232 1.014044 4.515236 -4.067209 1.621250 4.435624 2.773107 2.003910 0.000000 0.000000 0.000000 
-2520.810791 900.124695 1181.711060 -1.512984 2.301717 1.171449 0.714201 -1.520124 -1.762538 0.843193 0.218879 0.405507 0.786441 -0.299819 -0.309667 -0.011678 1.362327 0.171111 0.000000 0.000000 0.000000 1.637458 0.880896 2.204562 -0.096381 1.125325 2.050312 -0.386535 2.938636 0.134621 0.000000 0.000000 0.000000 1.010767 0.457046 2.261595 -0.247868 0.644036 -2.224227 0.622029 3.247145 1.781768 0.000000 0.000000 0.000000 -0.945507 0.026824 -2.350666 -1.040668 -1.034935 -0.631143 -1.049418 0.832528 -0.278362 0.000000 0.000000 0.000000 4.480261 -0.798637 0.998380 4.514760 -4.044465 1.633461 4.436404 2.766226 2.003891 0.000000 0.000000 0.000000 
-2520.764404 900.207458 1181.697998 -1.521260 2.299893 1.175417 0.715023 -1.523203 -1.751637 0.843378 0.219252 0.403455 0.786865 -0.299946 -0.308402 -0.009726 1.360876 0.165070 0.000000 0.000000 0.000000 1.659878 0.865428 2.215819 -0.097479 1.114996 2.016205 -0.386182 2.939940 0.139263 0.000000 0.000000 0.000000 1.003269 0.450313 2.229527 -0.246575 0.634044 -2.204672 0.621897 3.246892 1.781312 0.000000 0.000000 0.000000 -0.941789 0.026860 -2.360829 -1.037495 -1.029293 -0.630785 -1.046410 0.835478 -0.276615 0.000000 0.000000 0.000000 4.482050 -0.805138 0.983592 4.515357 -4.022519 1.644914 4.438154 2.758757 2.004246 0.000000 0.000000 0.000000 
